<svg aria-hidden="true" style="position: absolute; width: 0; height: 0; overflow: hidden;" version="1.1" xmlns="http://www.w3.org/2000/svg" xmlns:xlink="http://www.w3.org/1999/xlink">
<defs>
<symbol id="icon-man" viewBox="0 0 12 32">
<path d="M6.133 5.224c1.443-0 2.612-1.17 2.612-2.612s-1.17-2.612-2.612-2.612c-0 0-0 0-0 0h0c-1.443 0-2.612 1.17-2.612 2.612s1.17 2.612 2.612 2.612v0zM3.337 5.8c-1.85 0-3.337 1.509-3.337 3.39v8.020c0 1.559 2.281 1.559 2.281 0v-7.333h0.54v20.079c0 2.084 3.039 2.023 3.039 0v-11.657h0.523v11.656c0 2.023 3.055 2.084 3.055 0v-20.078h0.527v7.333c0 1.571 2.27 1.571 2.265 0v-7.972c0-1.735-1.348-3.435-3.378-3.435l-5.517-0.004z"></path>
</symbol>
<symbol id="icon-person" viewBox="0 0 19 32">
<path d="M9.6 12.8c3.535 0 6.4-2.865 6.4-6.4s-2.865-6.4-6.4-6.4v0c-3.535 0-6.4 2.865-6.4 6.4s2.865 6.4 6.4 6.4v0zM9.6 16c-5.302 0-9.6 4.298-9.6 9.6v0 6.4h19.2v-6.4c0-5.302-4.298-9.6-9.6-9.6v0z"></path>
</symbol>
<symbol id="icon-man-small" viewBox="0 0 12 32">
<path d="M6.171 5.255c0.024 0.001 0.052 0.001 0.080 0.001 1.452 0 2.629-1.177 2.629-2.629s-1.177-2.629-2.629-2.629c-0.028 0-0.056 0-0.085 0.001l0.004-0c-1.417 0.045-2.549 1.204-2.549 2.628s1.132 2.583 2.544 2.628l0.004 0zM3.358 5.836c-1.856 0.008-3.358 1.515-3.358 3.372 0 0.014 0 0.028 0 0.042l-0-0.002v8.069c0 1.568 2.297 1.568 2.297 0v-7.38h0.542v20.202c0 2.097 3.057 2.036 3.057 0v-11.727h0.527v11.727c0 2.036 3.077 2.097 3.077 0v-20.202h0.529v7.38c0 1.58 2.284 1.58 2.279 0v-8.022c0-1.745-1.354-3.456-3.399-3.456l-5.551-0.002z"></path>
</symbol>
<symbol id="icon-star" viewBox="0 0 32 32">
<path d="M10.72 5.24l-0.442 0.105-0.259 0.184c-0.179 0.117-0.326 0.265-0.438 0.439l-0.004 0.006-0.187 0.259-0.107 0.451c-0.119 0.492-0.119 0.523-0.015 0.928 0.020 0.082 0.056 0.267 0.082 0.411 0.046 0.253 0.099 0.535 0.198 1.013 0.119 0.573 0.183 0.884 0.264 1.312 0.082 0.433 0.152 0.773 0.25 1.225 0.023 0.102 0.062 0.305 0.088 0.45 0.027 0.146 0.072 0.381 0.102 0.523l0.052 0.259-0.056 0.046c-0.055 0.041-0.398 0.226-0.736 0.393-0.079 0.041-0.141 0.076-0.201 0.113l0.013-0.008c-0.095 0.057-0.234 0.133-0.376 0.206l-0.049 0.023c-0.198 0.107-0.439 0.233-0.536 0.283-0.436 0.224-0.653 0.343-0.869 0.464l0.206-0.106c-0.062 0.035-0.244 0.13-0.401 0.213-0.141 0.070-0.244 0.126-0.344 0.185l0.032-0.017c-0.067 0.040-0.203 0.114-0.341 0.185l-0.076 0.036c-0.24 0.119-0.408 0.211-0.575 0.306l0.060-0.031c-0.067 0.038-0.165 0.091-0.219 0.116-0.149 0.086-0.272 0.167-0.391 0.253l0.013-0.009c-0.191 0.116-0.348 0.271-0.464 0.453l-0.003 0.006-0.184 0.262-0.090 0.381c-0.050 0.21-0.098 0.411-0.105 0.454-0.008 0.046 0.027 0.244 0.091 0.51l0.101 0.436 0.181 0.254c0.115 0.182 0.265 0.332 0.441 0.445l0.006 0.003c0.265 0.192 0.268 0.192 0.613 0.277 0.349 0.092 0.867 0.2 1.391 0.292l0.142 0.021c0.061 0.012 0.219 0.043 0.35 0.061l0.361 0.064c0.070 0.015 0.283 0.055 0.475 0.090 0.363 0.066 1.135 0.21 1.463 0.273l0.475 0.087c0.45 0.081 0.539 0.098 0.887 0.165 0.178 0.035 0.325 0.066 0.328 0.069 0.008 0.017 0.325 1.307 0.526 2.142 3.295 15.378 3.523 16.289 3.753 17.199l-3.090-14.487c0.122 0.507 0.236 0.96 0.256 1 0.020 0.043 0.116 0.187 0.213 0.323 0.152 0.213 0.213 0.27 0.445 0.437l0.27 0.195 0.437 0.102 0.44 0.101 0.882-0.213 0.254-0.184c0.218-0.158 0.283-0.222 0.433-0.427 0.098-0.137 0.221-0.329 0.27-0.427-0.393 0.967 0.123-0.069 0.633-1.108l0.91-2.050c-0.46 1.060-0.231 0.6-0.003 0.139l0.689-1.541c0.003-0.005 0.236 0.027 0.466 0.066 1.011 0.124 1.592 0.208 2.171 0.298l-0.47-0.060c0.251 0.034 0.797 0.114 1.062 0.152 0.070 0.009 0.142 0.020 0.162 0.024l0.187 0.023c0.084 0.008 0.195 0.024 0.253 0.037 0.055 0.012 0.172 0.030 0.262 0.038 0.075 0.005 0.143 0.015 0.21 0.029l-0.009-0.002 0.113 0.023c0.614 0.084 1.032 0.145 1.184 0.165 0.178 0.024 0.21 0.020 0.625-0.076 0.463-0.11 0.478-0.116 0.818-0.366 0.142-0.108 0.261-0.237 0.356-0.383l0.004-0.006 0.18-0.251 0.107-0.446 0.104-0.443-0.102-0.439-0.102-0.437-0.183-0.259c-0.137-0.198-0.3-0.373-0.675-0.733-0.644-0.623-1.2-1.165-1.754-1.709l0.047 0.046c-0.558-0.547-1.154-1.125-1.754-1.699l-0.077-0.073c-0.090-0.085-0.134-0.145-0.122-0.163 0.025-0.040 0.047-0.087 0.064-0.135l0.001-0.005c0.024-0.061 0.075-0.184 0.114-0.274l0.226-0.526c0.084-0.2 0.177-0.407 0.203-0.462 0.059-0.131 0.213-0.491 0.285-0.663 0.030-0.076 0.11-0.254 0.174-0.401 0.066-0.145 0.16-0.366 0.213-0.488 0.052-0.125 0.175-0.41 0.274-0.637 0.488-1.123 0.498-1.144 0.6-1.585l0.102-0.427-0.105-0.448-0.104-0.451-0.186-0.254c-0.12-0.181-0.271-0.331-0.447-0.446l-0.006-0.004-0.267-0.195-0.445-0.107-0.445-0.101-0.418 0.098c-0.462 0.111-0.868 0.272-1.243 0.482l0.024-0.013c-0.077 0.043-0.196 0.103-0.316 0.159l-0.045 0.019c-0.388 0.171-0.601 0.273-0.814 0.377l0.163-0.073c-0.229 0.11-0.512 0.247-0.637 0.305-0.122 0.061-0.445 0.213-0.713 0.344-0.267 0.131-0.559 0.268-0.648 0.305-0.085 0.034-0.155 0.067-0.223 0.105l0.009-0.005c-0.044 0.030-0.864 0.411-0.881 0.411-0.008 0-0.568-0.503-0.635-0.571-0.064-0.061-0.133-0.123-0.203-0.184l-0.008-0.006c-0.329-0.285-0.605-0.533-0.879-0.785l0.028 0.026c-0.104-0.098-0.218-0.2-0.334-0.302l-0.016-0.014c-0.371-0.326-0.684-0.609-0.994-0.895l0.032 0.030c-0.117-0.102-0.442-0.396-0.725-0.649-0.233-0.213-0.483-0.425-0.742-0.626l-0.027-0.020-0.259-0.184-0.442-0.102-0.442-0.107-0.442 0.107z"></path>
</symbol>
</defs>
</svg>