<svg aria-hidden="true" style="position: absolute; width: 0; height: 0; overflow: hidden;" version="1.1" xmlns="http://www.w3.org/2000/svg" xmlns:xlink="http://www.w3.org/1999/xlink">
<defs>
<symbol id="icon-man" viewBox="0 0 12 32">
<path d="M6.133 5.224c1.443-0 2.612-1.17 2.612-2.612s-1.17-2.612-2.612-2.612c-0 0-0 0-0 0h0c-1.443 0-2.612 1.17-2.612 2.612s1.17 2.612 2.612 2.612v0zM3.337 5.8c-1.85 0-3.337 1.509-3.337 3.39v8.020c0 1.559 2.281 1.559 2.281 0v-7.333h0.54v20.079c0 2.084 3.039 2.023 3.039 0v-11.657h0.523v11.656c0 2.023 3.055 2.084 3.055 0v-20.078h0.527v7.333c0 1.571 2.27 1.571 2.265 0v-7.972c0-1.735-1.348-3.435-3.378-3.435l-5.517-0.004z"></path>
</symbol>
<symbol id="icon-person" viewBox="0 0 19 32">
<path d="M9.6 12.8c3.535 0 6.4-2.865 6.4-6.4s-2.865-6.4-6.4-6.4v0c-3.535 0-6.4 2.865-6.4 6.4s2.865 6.4 6.4 6.4v0zM9.6 16c-5.302 0-9.6 4.298-9.6 9.6v0 6.4h19.2v-6.4c0-5.302-4.298-9.6-9.6-9.6v0z"></path>
</symbol>
<symbol id="icon-man-small" viewBox="0 0 12 32">
<path d="M6.171 5.255c0.024 0.001 0.052 0.001 0.080 0.001 1.452 0 2.629-1.177 2.629-2.629s-1.177-2.629-2.629-2.629c-0.028 0-0.056 0-0.085 0.001l0.004-0c-1.417 0.045-2.549 1.204-2.549 2.628s1.132 2.583 2.544 2.628l0.004 0zM3.358 5.836c-1.856 0.008-3.358 1.515-3.358 3.372 0 0.014 0 0.028 0 0.042l-0-0.002v8.069c0 1.568 2.297 1.568 2.297 0v-7.38h0.542v20.202c0 2.097 3.057 2.036 3.057 0v-11.727h0.527v11.727c0 2.036 3.077 2.097 3.077 0v-20.202h0.529v7.38c0 1.58 2.284 1.58 2.279 0v-8.022c0-1.745-1.354-3.456-3.399-3.456l-5.551-0.002z"></path>
</symbol>
</defs>
</svg>